<svg width="16" height="16" viewBox="0 0 16 16" fill="none" xmlns="http://www.w3.org/2000/svg">
  <path d="M8.13363 6.76599C8.13363 6.76599 13.8896 12.122 14.1336 12.366C14.3776 12.61 14.4996 12.93 14.4996 13.25C14.4996 13.969 13.9106 14.5 13.2496 14.5C12.9296 14.5 12.6096 14.378 12.3656 14.134C12.1216 13.89 6.76562 8.13399 6.76562 8.13399" stroke="#CED0D6" stroke-linecap="round" stroke-linejoin="round"/>
  <path d="M7.64398 2.822L6.98298 2.161C6.54098 1.719 5.96498 1.5 5.38698 1.5C4.90598 1.5 4.42498 1.652 4.02098 1.954L5.77898 3.712L5.42798 5.427L3.71298 5.778L1.95498 4.02C1.65298 4.424 1.50098 4.906 1.50098 5.386C1.50098 5.963 1.71998 6.54 2.16198 6.982L2.82298 7.643C3.39398 8.214 4.14198 8.499 4.88998 8.499C5.63798 8.499 6.38598 8.214 6.95698 7.643L7.64598 6.954C8.21698 6.383 8.50198 5.635 8.50198 4.887C8.50198 4.139 8.21698 3.391 7.64598 2.82L7.64398 2.822Z" stroke="#CED0D6" stroke-linecap="round" stroke-linejoin="round"/>
</svg>
