<svg xmlns="http://www.w3.org/2000/svg" width="16" height="16" viewBox="0 0 16 16">
  <g id="ContextAction[RiderDark]" fill="none" fill-rule="evenodd" stroke="none" stroke-width="1">
    <path id="Fill-2" fill="#AFB1B3" d="M8,1 C7,1 6,1 5,2 L2.5,4.5 C2.362,4.638 2.293,4.819 2.293,5 C2.293,5.181 2.362,5.362 2.5,5.5 L2.7,5.7 C1.997,6.403 1.7,6.3 1.7,6.3 L1.001,7 L3,9 L3.7,8.3 C3.7,8.3 3.599,8.001 4.3,7.3 L4.5,7.5 C4.638,7.638 4.819,7.707 5,7.707 C5.181,7.707 5.362,7.638 5.5,7.5 L7.5,5.5 C7.638,5.362 7.707,5.181 7.707,5 C7.707,4.819 7.638,4.638 7.5,4.5 L6.398,3.398 C6.861,2.81 7.726,2 9,2 C9.919,2 10,1 10,1 L8,1 Z M15,13.269 C15.009,13.526 14.912,13.787 14.711,13.989 L13.921,14.71 C13.719,14.912 13.459,15.008 13.201,15 C12.944,14.991 12.691,14.879 12.504,14.664 L6.616,7.798 L7.796,6.618 L14.662,12.57 C14.878,12.758 14.991,13.012 15,13.269 L15,13.269 Z"/>
  </g>
</svg>
