<svg xmlns="http://www.w3.org/2000/svg" width="16" height="16" viewBox="0 0 16 16">
  <g id="light/tree_white_right_arrow" fill="none" fill-rule="evenodd" stroke="none" stroke-width="1">
    <path id="Fill-2" fill="#8C989E" d="M7.1499,5.7485 L7.1499,10.2515 L10.3669,7.9995 L7.1499,5.7485 Z M6.4999,12.1495 C6.3979,12.1495 6.2949,12.1255 6.1999,12.0765 C5.9849,11.9645 5.8499,11.7425 5.8499,11.4995 L5.8499,4.4995 C5.8499,4.2575 5.9849,4.0355 6.1999,3.9235 C6.4149,3.8115 6.6739,3.8285 6.8729,3.9675 L11.8729,7.4675 C12.0459,7.5895 12.1499,7.7885 12.1499,7.9995 C12.1499,8.2115 12.0459,8.4105 11.8729,8.5325 L6.8729,12.0325 C6.7609,12.1105 6.6309,12.1495 6.4999,12.1495 L6.4999,12.1495 Z"/>
  </g>
</svg>
